<?xml version="1.0" encoding="UTF-8"?><svg id="Calque_1" xmlns="http://www.w3.org/2000/svg" xmlns:xlink="http://www.w3.org/1999/xlink" viewBox="0 0 1211.21 326.17"><defs><style>.cls-1{fill:none;}.cls-2{clip-path:url(#clippath);}.cls-3{fill:#ea5d58;}.cls-4{fill:#587499;}</style><clipPath id="clippath"><rect class="cls-1" y="0" width="1211.21" height="326.17"/></clipPath></defs><g class="cls-2"><path class="cls-3" d="m320.91,226.94v76.38c0,9.49-7.74,17.21-17.23,17.21s-17.21-7.72-17.21-17.21v-52.3c0-3.78-3.08-6.86-6.86-6.86h-53.43c-9.49,0-17.21-7.72-17.21-17.21s7.72-17.23,17.21-17.23h77.51c9.49,0,17.23,7.74,17.23,17.23"/><path class="cls-3" d="m423.49,190.76c0,9.49-7.72,17.21-17.21,17.21h-77.51c-9.49,0-17.21-7.72-17.21-17.21v-76.38c0-9.49,7.72-17.23,17.21-17.23s17.21,7.74,17.21,17.23v52.3c0,3.78,3.08,6.86,6.88,6.86h53.41c9.49,0,17.21,7.72,17.21,17.21"/><path class="cls-4" d="m600.87,88.14c14.72,8.46,26.25,20.05,34.59,34.77,8.34,14.72,12.52,31.12,12.52,49.2s-3.89,34.48-11.65,49.2c-7.77,14.72-18.43,26.25-31.99,34.59-13.56,8.34-28.69,12.52-45.38,12.52-13.45,0-25.96-2.78-37.55-8.35-11.6-5.56-21.44-13.33-29.55-23.3v71.67c0,5.33-1.62,9.61-4.87,12.86-3.25,3.25-7.54,4.87-12.87,4.87s-9.33-1.63-12.69-4.87c-3.36-3.25-5.04-7.53-5.04-12.86v-136.34c0-18.08,4.22-34.48,12.69-49.2,8.46-14.72,19.93-26.31,34.42-34.77,14.48-8.46,30.65-12.69,48.5-12.69s34.13,4.23,48.85,12.69m-17.39,140.46c9.39-5.68,16.8-13.44,22.25-23.3,5.44-9.85,8.17-20.92,8.17-33.2s-2.73-23.41-8.17-33.38c-5.45-9.96-12.86-17.79-22.25-23.47-9.39-5.67-19.88-8.52-31.46-8.52s-22.08,2.84-31.47,8.52c-9.39,5.68-16.75,13.51-22.08,23.47-5.33,9.97-8,21.09-8,33.38s2.66,23.35,8,33.2c5.33,9.86,12.69,17.62,22.08,23.3,9.39,5.68,19.87,8.52,31.47,8.52s22.08-2.83,31.46-8.52"/><path class="cls-4" d="m835.55,88.14c14.48,8.46,25.96,20.05,34.42,34.77,8.46,14.72,12.69,31.12,12.69,49.2v77.53c0,5.1-1.68,9.33-5.04,12.69-3.36,3.36-7.6,5.04-12.69,5.04s-9.33-1.68-12.69-5.04c-3.36-3.36-5.04-7.59-5.04-12.69v-12.87c-8.12,9.97-17.97,17.73-29.55,23.3-11.59,5.56-24.11,8.35-37.55,8.35-16.69,0-31.81-4.17-45.37-12.52-13.56-8.35-24.23-19.87-31.99-34.59-7.77-14.72-11.65-31.12-11.65-49.2s4.17-34.48,12.52-49.2c8.35-14.72,19.87-26.31,34.59-34.77,14.72-8.46,31-12.69,48.85-12.69s34.01,4.23,48.5,12.69m-17.04,140.46c9.39-5.68,16.74-13.44,22.08-23.3,5.33-9.85,7.99-20.92,7.99-33.2s-2.66-23.41-7.99-33.38c-5.34-9.96-12.69-17.79-22.08-23.47-9.39-5.67-19.88-8.52-31.46-8.52s-22.08,2.84-31.47,8.52c-9.39,5.68-16.81,13.51-22.25,23.47-5.45,9.97-8.17,21.09-8.17,33.38s2.72,23.35,8.17,33.2c5.44,9.86,12.86,17.62,22.25,23.3,9.39,5.68,19.87,8.52,31.47,8.52s22.08-2.83,31.46-8.52"/><path class="cls-4" d="m940.55,39.11c-4.52-4.52-6.78-9.91-6.78-16.17s2.26-11.65,6.78-16.16c4.52-4.52,9.91-6.78,16.17-6.78s11.65,2.26,16.16,6.78c4.52,4.52,6.78,9.91,6.78,16.16s-2.26,11.65-6.78,16.17c-4.52,4.52-9.91,6.78-16.16,6.78s-11.65-2.26-16.17-6.78m3.48,222.87c-3.36-3.36-5.04-7.59-5.04-12.69V94.57c0-5.33,1.68-9.61,5.04-12.86,3.36-3.24,7.59-4.87,12.69-4.87s9.61,1.62,12.86,4.87c3.24,3.25,4.87,7.54,4.87,12.86v154.72c0,5.1-1.62,9.34-4.87,12.69-3.25,3.36-7.53,5.04-12.86,5.04s-9.34-1.68-12.69-5.04"/><path class="cls-4" d="m1206.69,179.93c-3.01,2.9-6.84,4.35-11.47,4.35h-132.12c2.55,16.22,9.91,29.32,22.08,39.29,12.17,9.97,27.06,14.95,44.68,14.95,6.96,0,14.2-1.27,21.73-3.83,7.53-2.55,13.73-5.67,18.6-9.38,3.24-2.55,7.07-3.83,11.47-3.83s7.88,1.16,10.43,3.48c4.17,3.48,6.26,7.42,6.26,11.82s-1.86,7.65-5.56,10.43c-7.88,6.26-17.68,11.36-29.38,15.3-11.71,3.94-22.89,5.91-33.55,5.91-19.01,0-36.05-4.11-51.11-12.34-15.07-8.23-26.83-19.64-35.29-34.25-8.46-14.6-12.69-31.17-12.69-49.72s4-35.17,11.99-49.89c8-14.72,19.12-26.19,33.38-34.42,14.25-8.23,30.42-12.34,48.5-12.34s33.26,3.95,46.24,11.82c12.98,7.88,22.94,18.89,29.9,33.03,6.96,14.14,10.43,30.37,10.43,48.68,0,4.41-1.51,8.06-4.52,10.95m-123.25-60.67c-10.55,9.28-17.21,21.68-19.99,37.2h115.78c-2.09-15.53-7.89-27.93-17.39-37.2-9.51-9.27-21.9-13.91-37.2-13.91-16.92,0-30.66,4.64-41.2,13.91"/><path class="cls-3" d="m239.34,133.18c-.04-.08-.08-.18-.12-.25-.18-.37-.35-.74-.55-1.09-.04-.08-.08-.16-.12-.21-6.76-13.67-15.42-25.38-25.79-34.91-12.3-11.31-27.37-19.9-44.8-25.54-23.41-7.58-46.12-9.06-67.53-4.43-21.39,4.66-40.53,14.74-56.88,30-16.38,15.26-28.64,35.21-36.42,59.24C-.44,179.42-2,202.39,2.53,224.24c4.5,21.87,14.37,41.45,29.36,58.21,14.95,16.77,34.56,29.14,58.29,36.82,20.55,6.65,40.37,8.5,59.26,5.52.62-.06,1.25-.16,1.85-.29,7.97-1.7,13.92-8.89,13.92-17.19,0-9.71-8.09-17.8-18.09-17.8-.58,0-1.17.02-1.73.1-.04-.02-.08,0-.12,0-.86.08-1.7.23-2.51.43-.04.02-.1.04-.16.04-3.55.51-7.15.76-10.76.74-9.3-.02-19.63-1.85-30.68-5.44-16.86-5.46-30.59-14.29-40.82-26.24-10.22-11.93-16.84-25.95-19.67-41.66-2.85-15.65-1.46-32.24,4.05-49.32,5.83-17.97,14.5-32.69,25.79-43.76,11.37-11.11,24.68-18.52,39.59-22.01,14.89-3.47,30.68-2.57,46.9,2.67,22.46,7.27,39.07,21.31,49.46,41.74.16.37.33.74.53,1.09,3.02,5.63,9.12,9.45,15.89,9.67,9.86.29,17.86-7.86,17.86-17.53,0-2.42-.51-4.74-1.38-6.84"/></g></svg>